<svg xmlns="http://www.w3.org/2000/svg" width="731" height="564" fill="none">
  <g id="dogwalk" clip-path="url(#clip0_1_45)">
    <path id="sidewalk" fill="#3F3D56" d="M730.67 472.805c0 .66-.53 1.19-1.19 1.19H1.19c-.66 0-1.19-.53-1.19-1.19 0-.32.12-.6.32-.81h89.72c1.91 0 3.78-.13 5.62-.38h633.82c.66 0 1.19.53 1.19 1.19Z"/>
    <g id="fire-hydren" fill="#E6E6E6">
      <path id="Vector" d="M148.576 275.04H74.952v181.538h73.624V275.04Z"/>
      <path id="Vector_2" d="M113.882 327.484c0 18.381-14.9 33.282-33.282 33.282-18.381 0-33.282-14.901-33.282-33.282 0-18.381 14.901-33.282 33.282-33.282 18.381 0 33.282 14.901 33.282 33.282Z"/>
      <path id="Vector_3" d="M49.841 336.965a9.28 9.28 0 1 0-.001-18.558 9.28 9.28 0 0 0 .001 18.558Z"/>
      <path id="Vector_4" d="M172.378 327.283c0 10.694-8.67 19.364-19.364 19.364-10.695 0-19.364-8.67-19.364-19.364 0-10.695 8.669-19.364 19.364-19.364 10.694 0 19.364 8.669 19.364 19.364Z"/>
      <path id="Vector_5" d="M172.378 336.561a9.278 9.278 0 0 0 9.278-9.278 9.279 9.279 0 1 0-9.278 9.278Z"/>
      <path id="Vector_6" d="M112.672 218.763a9.278 9.278 0 0 0 9.278-9.278 9.279 9.279 0 1 0-9.278 9.278Z"/>
      <path id="Vector_7" d="M67.892 261.122h91.173a8.472 8.472 0 1 1 0 16.944H67.893a8.472 8.472 0 0 1 0-16.944Z"/>
      <path id="Vector_8" d="M113.479 218.763c19.37 0 35.097 15.727 35.097 35.098v12.506H78.381v-12.506c0-19.371 15.727-35.098 35.098-35.098Z"/>
      <path id="Vector_9" d="M168.444 453.552H55.084v18.154h113.36v-18.154Z"/>
    </g>
    <g id="person-dog">
      <g id="Group">
        <g id="Group_2" fill="#3F3D56">
          <path id="Vector_10" d="M208.218 361.302c8.967 5.408 9.851 7.96 15.284 10.19 2.749 1.128 7.897 2.681 17.831 1.273 13.687-1.939 22.127-7.467 45.852-20.378 16.921-9.209 25.194-13.236 36.936-15.284 8.798-1.535 13.911-.976 17.831 0 13.674 3.404 21.138 13.951 22.926 16.557 6.179 9.011 6.961 17.811 7.642 25.474.857 9.652 2.097 23.6-5.095 34.388-9.012 13.52-21.563 7.528-43.304 20.379-24.03 14.204-20.011 28.211-39.484 35.662-24.916 9.536-52.043-5.536-53.493-6.368-25.798-14.795-31.076-41.643-44.578-39.483-8.068 1.29-8.871 11.304-21.653 14.01-2.391.506-12.234 2.59-19.104-3.821-4.222-3.939-4.091 4.879-1.911-.637 2.799-7.082 8.446-20.904 12.1-28.657 1.951-4.142-.248-5.42 1.273-16.558.744-5.44 1.119-8.186 2.548-11.463 3.54-8.119 10.414-12.313 15.284-15.284 5.924-3.614 11.749-7.167 19.105-6.368 4.209.458 7.476 2.428 14.01 6.368Z"/>
          <path id="Vector_11" d="M363.604 391.87c2.26 1.851 2.798 5.603 3.821 12.737.947 6.6.371 10.648 0 17.831-.557 10.781.321 9.778 0 24.2-.264 11.866-.396 17.799-1.274 22.925-1.577 9.219-2.418 5.677-10.189 29.295-1.577 4.791-2.832 8.859-6.368 10.189-4.43 1.666-9.535-2.057-10.189-2.548-1.074-.804-4.858-3.64-5.095-7.641-.301-5.08 5.449-6.367 10.189-14.011 2.96-4.772 3.672-9.55 5.095-19.105 1.353-9.086 2.03-13.63 0-17.831-3.704-7.666-12.179-10.042-12.737-10.189-5.071-1.34-6.71.558-12.736 0-5.637-.522-14.923-3.175-16.558-7.642-4.483-12.246 45.248-47.051 56.041-38.21Z"/>
          <path id="Vector_12" d="M343.226 374.039c2.259 1.851 2.797 5.603 3.821 12.737.946 6.6.371 10.648 0 17.831-.557 10.781.321 9.778 0 24.199-.265 11.866-.397 17.8-1.274 22.926-1.578 9.219-2.418 5.677-10.189 29.294-1.577 4.792-2.833 8.859-6.369 10.19-4.43 1.666-9.534-2.057-10.189-2.548-1.074-.804-4.857-3.64-5.095-7.642-.3-5.079 5.449-6.366 10.19-14.01 2.96-4.773 3.671-9.55 5.094-19.105 1.354-9.086 2.03-13.63 0-17.831-3.704-7.666-12.178-10.042-12.736-10.189-5.072-1.341-6.711.557-12.737 0-5.637-.522-14.922-3.175-16.557-7.642-4.483-12.246 45.247-47.052 56.041-38.21Z"/>
          <path id="Vector_13" d="M305.016 436.448c1.433 2.187 3.078 7.826 6.368 19.105 1.467 5.03 10.966 38.123 14.01 48.399.875 2.954 2.009 6.642 5.095 10.189 2.597 2.987 3.984 2.893 5.095 5.095 2.889 5.731-2.749 13.815-3.821 15.284-1.248 1.709-7.042 9.648-15.284 8.916-.861-.077-6.431-.572-7.642-3.821-1.856-4.981 9.057-9.655 8.915-17.832-.083-4.829-3.952-6.829-8.915-12.736-10.647-12.673-6.106-19.256-14.01-29.294-11.823-15.014-33.796-15.289-36.937-15.284-8.135.011-19.458.028-26.746 7.642-10.162 10.614-5.962 29.183-10.19 57.314 0 0-.685 4.561-2.547 11.463-3.073 11.39-5.524 14.331-6.368 15.284-1.147 1.295-4.503 4.981-10.19 6.368-.783.192-4.405 1.021-8.915 0-2.993-.677-5.721-1.295-7.642-3.821-1.842-2.422-2.541-6.074-1.274-8.915 1.534-3.439 4.693-2.881 8.916-6.369 2.98-2.461 4.534-5.886 7.642-12.736 1.376-3.033 3.436-7.63 5.094-14.01 1.92-7.384 2.155-13.09 2.548-24.2.331-9.359.171-17.14 0-25.473-.199-9.702-.471-12.871 0-19.105.494-6.54.975-12.909 2.547-16.557 8.459-19.63 75.58-23.382 94.251 5.094Z"/>
          <path id="Vector_14" d="M358.51 349.839c5.444-3.01 6.221-10.055 7.641-22.925 1.035-9.376 1.651-14.959-1.273-21.653-3.948-9.035-11.357-13.252-12.737-14.01-1.507-.828-11.401-6.075-21.652-2.547-1.431.492-5.219 3.307-12.737 8.915-8.971 6.694-10.287 7.97-11.463 10.19-3.144 5.938-2.81 13.965 0 15.284 2.135 1.001 5.824-1.809 7.642-3.821 2.174-2.406 1.847-3.863 3.821-6.369 1.565-1.986 3.038-2.678 7.642-5.094 11.406-5.985 11.983-6.779 14.011-6.369 5.053 1.022 7.462 7.165 7.642 7.642 1.542 4.095.484 7.819-1.274 14.011-.931 3.276-1.988 5.804-3.821 10.189-3.32 7.94-4.194 8.536-3.821 10.189 1.225 5.424 13.188 10.345 20.378 6.368h.001Z"/>
        </g>
        <path id="Vector_15" fill="#6C63FF" d="M227.959 372.129c2.106.347 3.128 12.387 0 22.925-2.138 7.207-6.452 14.502-7.222 15.789-.607 1.013-1.191 1.938-2.967 4.59-8.687 12.971-13.076 19.45-15.284 19.105-2.943-.461 5.114-7.423 5.732-14.079 1.149-12.376 6.706-13.906 16.557-31.842 5.331-9.705 1.541-16.76 3.184-16.488Z"/>
        <path id="Vector_16" fill="#2F2E41" d="M183.381 368.307c-1.064-5.419 4.99-12.945 11.463-14.01 9.44-1.552 17.635 10.988 20.379 19.105 3.774 11.164-.464 20.758-2.547 25.473-2.613 5.914-4.567 6.303-5.095 6.369-3.854.482-8.422-6.576-10.189-12.737-1.556-5.42.199-6.162-1.274-10.189-3.033-8.291-11.6-8.227-12.737-14.011Z"/>
        <path id="Vector_17" fill="#6C63FF" d="m226.084 395.477 252.734-164.939-3.726-.845-252.735 164.938 3.727.846Z"/>
      </g>
      <g id="Group_3">
        <path id="Vector_18" fill="#A0616A" d="m539.795 80.054-5.536-20.296 24.909-9.226 2.768 18.451-22.141 11.07Z"/>
        <path id="Vector_19" fill="#000" d="m539.795 80.054-5.536-20.296 14.669-6.188-4.557 23.927-4.576 2.557Z" opacity=".1"/>
        <g id="Group_4">
          <path id="Vector_20" fill="#A0616A" d="M466.877 253.998c-4.757-2.83-5.008-11.186-.56-18.662 1.947-3.273 4.472-5.834 7.095-7.443l2.612-4.268 33.046-59.241s14.465-55.872 20.354-62.627c5.889-6.756 14.404-5.164 14.404-5.164l7.553 6.708-26.956 79.135-33.265 46.845-4.458 6.52c-.162 3.072-1.209 6.513-3.156 9.786-4.448 7.476-11.911 11.242-16.669 8.411Z"/>
          <path id="Vector_21" fill="#6C63FF" d="M538.432 74.257s10.511-.407 17.143 7.758c6.632 8.165-28.111 100.189-28.111 100.189l-28.298-1.002 39.266-106.945Z"/>
        </g>
        <path id="Vector_22" fill="#A0616A" d="M541.178 62.987c14.267 0 25.832-11.565 25.832-25.832 0-14.266-11.565-25.831-25.832-25.831-14.266 0-25.831 11.565-25.831 25.831 0 14.267 11.565 25.832 25.831 25.832Z"/>
        <path id="Vector_23" fill="#A0616A" d="m480.751 412.171-17.528 43.36-10.148-10.148-3.69-19.373 14.761-18.451 16.605 4.612Z"/>
        <path id="Vector_24" fill="#A0616A" d="m644.965 396.488 17.529 20.296-8.303 16.606-18.451-2.768-9.226-25.831 18.451-8.303Z"/>
        <path id="Vector_25" fill="#A0616A" d="m528.263 154.319-2.307 37.363 57.198-10.148-3.69-23.063-51.201-4.152Z"/>
        <path id="Vector_26" fill="#2F2E41" d="m525.495 192.144 57.659-18.913s21.219 42.438-1.845 69.191c-23.063 26.754-99.635 178.975-99.635 178.975l-23.064-11.071 33.212-96.867 36.902-89.488-3.229-31.827Z"/>
        <path id="Vector_27" fill="#2F2E41" d="m581.309 226.739 22.141 96.868 46.128 74.726-23.986 13.838-64.579-88.564-21.218-68.269 41.514-28.599Z"/>
        <path id="Vector_28" fill="#2F2E41" d="M441.082 422.319h-15.978s-18.643-7.38-23.013 0c-4.369 7.381 19.496 28.313 19.496 28.313s33.333 18.737 37.946 17.815c4.613-.923 6.458-11.993 6.458-11.993l5.535-12.916-8.303 2.768s-11.071-6.458-8.303-17.529l-13.838-6.458Z"/>
        <path id="Vector_29" fill="#2F2E41" d="M658.803 419.552v-9.226l10.726 9.226s17.873 6.458 4.035 20.296c-13.838 13.838-31.367 28.599-31.367 28.599s-27.676 7.38-29.521-.923c-1.845-8.303 0-11.662 0-11.662l10.148-4.943 9.225-23.987 14.761 1.845 11.993-9.225Z"/>
        <path id="Vector_30" fill="#2F2E41" d="m549.02 42.23-8.303-.923-15.222-15.222s-13.838 7.38-13.838 1.845c0-25.831 15.683-24.909 28.599-26.754 12.916-1.845 11.532-2.306 15.683 4.613 1.899 3.164 8.764 5.074 8.764 5.074s12.916-17.529 19.374 3.69c6.458 21.219-1.845 86.72 4.613 92.255 6.458 5.535-26.516 11.062-22.945-10.614 3.571-21.675 10.029-54.887 6.339-62.268-3.69-7.38-4.613-5.535-4.613-5.535 4.573-1.867 7.561 31.022-9.681 32.632l-.467-16.026s-2.768-8.303-8.303-2.768Z"/>
        <path id="Vector_31" fill="#6C63FF" d="m537.488 74.057 27.677-11.07 36.902 110.706-75.926-2.766-6.837-33.042s-6.674-17.197-1.139-27.346c5.535-10.148 19.323-36.482 19.323-36.482Z"/>
        <g id="Group_5">
          <path id="Vector_32" fill="#A0616A" d="M609.507 259.504c-5.516.474-10.591-6.169-11.335-14.837-.326-3.794.232-7.347 1.425-10.183l-.366-4.99-7.687-67.398s-14.31-55.13-13.464-64.052c.847-8.922 2.184-11.29 2.184-11.29l10.047 1.046 24.233 80.011.283 57.454.178 7.896c1.659 2.591 2.815 5.997 3.141 9.791.744 8.668-3.124 16.078-8.639 16.552Z"/>
          <path id="Vector_33" fill="#6C63FF" d="M562.858 71.751s8.303-6.458 18.451-3.69c10.148 2.767 35.569 97.79 35.569 97.79l-23.576 15.683-30.444-109.783Z"/>
        </g>
      </g>
    </g>
  </g>
  <defs>
    <clipPath id="clip0_1_45">
      <path fill="#fff" d="M0 0h730.67v563.04H0z"/>
    </clipPath>
  </defs>
</svg>
