<svg xmlns="http://www.w3.org/2000/svg" width="867" height="444" fill="none">
  <g id="engineering-team" clip-path="url(#clip0_2_170)">
    <g id="people">
      <path id="Vector" fill="#F2F2F2" d="m828.335 244.952-2.715 21.622-6.74 53.704H683.498c1.057-12.037 2.502-29.362 4.046-48.065.152-1.868.312-3.748.464-5.639 3.872-47.014 8.108-100.216 8.108-100.216l17.799 3.315 34.532 6.422 14.071 2.615 37.682 7.016c18.787 3.491 31.71 30.693 28.135 59.226Z"/>
      <path id="Vector_2" fill="#FFB6B6" d="m725.93 79.358 16.649 29.133-31.999 22.678-13.65-35.811 29-16Z"/>
      <path id="Vector_3" fill="#FFB6B6" d="M704.735 106.92c22.779 0 41.244-18.466 41.244-41.245 0-22.778-18.465-41.244-41.244-41.244-22.778 0-41.244 18.466-41.244 41.245 0 22.778 18.466 41.244 41.244 41.244Z"/>
      <path id="Vector_4" fill="#2F2E41" d="M701.774 74.896c-3.275-4.984-1.99-7.591-4.731-9.423 0 0-1.104-.737-9-1.157-1.768-12.724-3.975-14.267-3.975-14.267-2.543-1.779-6.318-1.2-8.666-.113-4.966 2.3-4.391 7.27-7.735 8.22-4.619 1.314-13.024-6.091-13.852-14.569-.675-6.915 3.78-13.631 5.547-13.276 1.752.352 5.947-5.003 8.212-4.92 1.547.056 7.867-2.69 9.567-2.476 1.857.235 7.978 3.43 8.233 2.7 1.773-5.073 1.252-6.48 2.756-7.93 2.666-2.572 7.026-.781 13.867.18 14.074 1.978 16.53-2.663 23.743.482 3.644 1.59 6.692 5.874 12.641 14.38 8.319 11.895 12.479 17.843 12.506 24.78.027 7.074-3.399 6.625-4.904 17.098-1.675 11.658 1.884 16.989-2.004 20.776-3.005 2.928-9.113 3.623-12.322 1.053-5.494-4.398 1.696-15.012-4.384-22.766-3.732-4.76-11.238-6.878-14.676-4.525-3.888 2.66-1.746 10.47-4.48 11.21-2.341.634-5.772-4.588-6.343-5.457Z"/>
      <path id="Vector_5" fill="#6C63FF" d="M797.85 237.338c-1.15 19.67-5.72 25.879-7.32 49.109-.35 5.101-.56 11.02-.56 18.081 0 1.799.01 3.54.01 5.24 0 3.619-.069 7.04-.49 10.51a46.32 46.32 0 0 1-1.78 8.5h-88.83c-.009-.02-.009-.04-.02-.061-.52-2.259-.85-4.419-1.1-6.489-.08-.66-.15-1.31-.21-1.95-.08-.75-.15-1.49-.219-2.22-.271-2.91-.54-5.66-1.181-8.29-.859-3.631-2.42-7.05-5.62-10.35-1.31-1.35-2.619-2.4-3.9-3.32-.25-.171-.49-.34-.74-.51-3.54-2.431-6.89-4.181-9.79-9.141-.05-.069-.09-.149-.13-.219-.5-.87-1.8-3.151-2.74-6.19-.99-3.16-1.59-7.131-.51-11.19 2.571-9.62 12.09-10.58 19.87-20.3.84-1.05 1.67-2.21 2.46-3.5 3.52-5.721 4.47-10.76 5.59-16.75a65.84 65.84 0 0 0 .731-4.931c.619-5.71.319-10.629-.411-15.029-2.379-14.411-9.4-23.33-4.44-36.261 1.561-4.059 3.771-7.109 6-9.719 4.72-5.531 9.57-9.12 8.73-16.26-.85-7.2-6.31-8.191-6.919-14.481-.311-3.179.729-6.529 2.679-9.819v-.01c6.24-10.591 21.821-20.341 31.72-20.03 1.83.05 3.45.459 4.8 1.25 4.89 2.879 2.85 9.169 10.341 17.99 5.569 6.55 11.869 9.17 14.259 10.409 9.47 4.941 17.17 19.511 22.4 38.141.04.14.08.279.12.43 3.23 11.67 5.511 24.92 6.641 38.36.479 5.69.759 11.41.819 17.069.051 4.52-.05 8.441-.26 11.931Z"/>
      <g id="Group">
        <path id="Vector_6" fill="#FFB6B6" d="m731.331 304.728-1.811 5.04-1.14 3.159-2.64 7.351-3.06 8.5h-19.67l3.3-8.5 1.53-3.96 2.54-6.55 4.26-11 16.691 5.96Z"/>
        <path id="Vector_7" fill="#6C63FF" d="M790.84 167.827c-.049.651-.12 1.37-.19 2.151-.779 7.94-2.62 22.15-5.31 38.36-1.42 8.549-3.08 17.66-4.95 26.71-4.019 19.529-9.019 38.76-14.67 51.399-1.01 2.281-2.05 4.341-3.11 6.161a87.54 87.54 0 0 1-2.55 4.109c-2.88 4.431-6.11 8.631-9.46 12.551-.13.17-.28.33-.43.5-.54.639-1.1 1.27-1.66 1.9-2.74 3.09-5.54 5.969-8.25 8.61-3.3 3.22-6.48 6.07-9.33 8.5h-31.94l-.13-.061-4.6-2.04s1.31-1.54 3.5-4.449c.45-.591.93-1.241 1.45-1.95.64-.871 1.331-1.831 2.07-2.871 1.54-2.179 3.29-4.739 5.17-7.639a257.77 257.77 0 0 0 11.98-20.5c.481-.93.97-1.87 1.46-2.821.01-.029.03-.06.04-.089.83-1.621 1.651-3.29 2.47-4.991 6.95-14.46 8.94-26.46 9.511-30.349.799-5.5 1.909-13.191 1.609-21.651-.2-5.579-1.01-11.48-2.939-17.339v-.01a49.202 49.202 0 0 0-4.631-10.16c-5.65-9.38-10.24-9.77-13.89-19.991-1.08-3.029-3.53-9.869-2.78-17.089v-.01c.091-.89.24-1.79.44-2.691v-.009c.05-.25.12-.51.191-.76a20.292 20.292 0 0 1 2.939-6.481c2.79-4.039 6.6-6.44 10.01-7.869l.011-.011c3.939-1.639 7.339-1.989 8-2.049 14.609-1.3 25.939 10.98 32.129 17.69 2.39 2.589 4.581 4.76 6.581 6.529 15.569 13.901 19.839 5.02 20.949.431.17-.71.261-1.32.31-1.721Z"/>
        <path id="Vector_8" fill="#6C63FF" d="M790.89 167.308c0 .05-.01.22-.05.5.02-.151.031-.3.04-.441 0-.029 0-.049.01-.059Z"/>
      </g>
      <path id="Vector_9" fill="#FFB6B6" d="m235.069 81.275 33.784-14.218 14.49 29.706-35.501 14.49-12.773-29.978Z"/>
      <path id="Vector_10" fill="#000" d="m235.069 81.275 33.784-14.218 14.49 29.706-35.501 14.49-12.773-29.978Z" opacity=".1"/>
      <path id="Vector_11" fill="#6C63FF" d="m239.872 69.955 33.328 38.4s-23.185 73.177-46.369 79.697c-23.185 6.521-65.932 38.4-65.932 38.4l-53.615-34.777 26.083-38.4s63.034-86.218 79.698-86.218c16.664 0 26.807 2.898 26.807 2.898Z"/>
      <g id="people_2">
        <path id="Vector_12" fill="#2F2E41" d="M194.843 320.278h-77.582l-4.905-6.557L92.33 286.95l-4.608-6.159s-17.388-31.879-13.766-60.86c3.623-28.981 41.298-35.501 41.298-35.501h1.551l46.123 40.53-2.753 37.718 14.606 24.272 20.062 33.328Z"/>
        <g id="people_3">
          <path id="Vector_13" fill="#A0616A" d="m467.455 95.766 30.418 43.018-53.059 1.585-5.695-40.427 28.336-4.176Z"/>
          <path id="Vector_14" fill="#000" d="m467.455 95.766 30.418 43.018-53.059 1.585-5.695-40.427 28.336-4.176Z" opacity=".1"/>
          <path id="uuid-ae755ff6-bb09-410e-86b1-7d1b81a37005-87" fill="#A0616A" d="M317.446 184.896c-3.903-11.259-12.876-18.371-20.041-15.886-7.165 2.485-9.808 13.625-5.902 24.888a29.824 29.824 0 0 0 7.464 11.944l17.14 47.497 22.117-8.518-19.245-45.919a29.827 29.827 0 0 0-1.533-14.006Z"/>
          <path id="Vector_15" fill="#CCC" d="m523.347 162.977-.041 43.84-4.079 16.194-8.39 33.306-6.108 30.633-4.55 22.822-1.623 8.151a125.409 125.409 0 0 1-3.659 2.355H388.921c-6.021-3.615-9.39-6.427-9.39-6.427s1.667-1.565 3.572-4.079c3.217-4.245 7.108-11.201 4.724-17.845-.5-1.391-.63-3.086-.478-4.977.971-12.476 14.056-33.575 14.056-33.575l-2.71-31.314-1.188-13.722 8.377-66.91 27.308-15.874 4.714-.456 46.536-2.514 19.235 1.108.876.239 18.794 39.045Z"/>
          <g id="Group_2">
            <path id="Vector_16" fill="#FFB6B6" d="M525.414 320.278h-23.185l-1.021-10.506-.022-.21 6.564-.449 17.077-1.166.297 6.288.232 4.826.058 1.217Z"/>
            <path id="Vector_17" fill="#CCC" d="m531.121 173.576 9.74 57.144-7.948 56.23-1.239 8.752-2.188 15.454-.674 4.753.022.514.166 3.855h-27.531l-1.015-10.506-.087-.942-2.072-21.518-.036-.362-4.398-45.631 8.622-32.98.637-2.427v-.007l3.752-56.47-2.906-25.662-.029-.239c.058.036.109.072.167.108.152.094.304.189.449.29 16.925 10.738 27.01 29.575 26.568 49.644Z"/>
          </g>
          <path id="Vector_18" fill="#CCC" d="m415.748 152.379-10.588-10.951s-22.664 10.218-23.794 15.886c-1.13 5.669-41.146 88.926-41.146 88.926l-17.41-46.499-22.662 15.13s18.184 72.192 35.19 75.581c17.006 3.39 74.001-85.446 74.001-85.446l6.409-52.627Z"/>
          <path id="Vector_19" fill="#FFB6B6" d="M296.385 99.331c18.182 0 32.922-14.74 32.922-32.922 0-18.182-14.74-32.921-32.922-32.921-18.182 0-32.922 14.74-32.922 32.921 0 18.183 14.74 32.922 32.922 32.922Z"/>
          <path id="Vector_20" fill="#FFB6B6" d="m241.321 152.551 3.623 39.124 24.634 99.26-21.282 7.459-35.956-108.168-4.966-43.471 33.947 5.796Z"/>
          <path id="Vector_21" fill="#FFB6B6" d="M273.5 310.278c14.359 0 26-5.149 26-11.5s-11.641-11.5-26-11.5-26 5.149-26 11.5 11.641 11.5 26 11.5Z"/>
          <path id="Vector_22" fill="#6C63FF" d="m190.242 158.532 14.853-79.158s41.298-5.796 42.747 7.97c1.449 13.766-1.036 81.042-1.036 81.042l-56.564-9.854Z"/>
          <path id="Vector_23" fill="#2F2E41" d="M283.095 71.586s20.366-7.268 28.956-11.18c8.591-3.91 25.657 23.367 26.037 8.961.38-14.406-5.518-20.447-5.518-20.447s-1.472-31.515-33.223-27.575c0 0 6.984-15.767-15.941-18.205-22.924-2.438-58.589 52.92-55.395 61.194 3.194 8.273 7.023 15.113-2.039 23.958-9.062 8.846-26.03 58.77-13.12 72.204 12.91 13.434 13.758 19.263 4.912 27.621-8.846 8.358-29.754 26.53-7.147 29.685 22.607 3.155-2.068.799 14.785-14.026 16.854-14.825 41.448-14.22 32.265-38.005-9.183-23.785 6.771-57.869 4.775-63.04-1.996-5.17 4.472-38.005 4.472-38.005s15.055-2.212 16.181 6.86Z"/>
          <g id="Group_3">
            <path id="Vector_24" fill="#A0616A" d="M451.191 111.337c19.793 0 35.838-16.046 35.838-35.838 0-19.793-16.045-35.838-35.838-35.838s-35.838 16.045-35.838 35.838 16.045 35.838 35.838 35.838Z"/>
            <path id="Vector_25" fill="#2F2E41" d="M454.051 27.317c-1.037.606-2.426-.31-2.758-1.464-.333-1.154.054-2.379.439-3.516l1.933-5.727c1.372-4.062 2.827-8.266 5.797-11.358C463.945.586 471.069-.6 477.483.26c8.235 1.104 16.361 5.564 20.191 12.939 3.829 7.374 2.199 17.665-4.721 22.266 9.862 11.303 13.3 23.9 12.757 38.891-.543 14.991-16.879 28.788-27.533 39.348-2.379-1.442-4.542-8.201-3.233-10.656 1.308-2.455-.567-5.3 1.054-7.562 1.62-2.261 2.976 1.34 1.338-.909-1.034-1.419 3-4.683 1.464-5.533-7.432-4.108-9.904-13.37-14.571-20.464-5.63-8.556-15.266-14.35-25.463-15.312-5.617-.53-11.55.43-16.154 3.69-4.604 3.262-7.585 9.09-6.517 14.63-2.765-2.808-4.142-6.923-3.622-10.829.519-3.906 2.922-7.518 6.324-9.506-2.068-6.842-.296-14.711 4.506-20.005 4.801-5.294 24.28-4.393 31.29-3l-.542-.93Z"/>
            <path id="Vector_26" fill="#2F2E41" d="M455.14 53.475c9.285 1.002 15.989 9.045 21.65 16.472 3.262 4.281 6.68 9.009 6.598 14.391-.083 5.441-3.721 10.109-5.459 15.265-2.842 8.429-.073 18.458 6.693 24.233-6.685 1.269-13.912-3.743-15.066-10.449-1.343-7.806 4.574-15.34 3.874-23.23-.618-6.95-6.096-12.3-10.752-17.498-4.657-5.197-9.031-12.093-6.888-18.735l-.65-.45Z"/>
          </g>
          <g id="Group_4">
            <path id="uuid-aec20554-f6ec-4c5b-9d97-717cd04239bf-88" fill="#FFB6B6" d="M593.947 290.977c-9.196 5.231-13.952 14.217-10.622 20.069 3.33 5.852 13.483 6.355 22.682 1.121a26.478 26.478 0 0 0 9.219-8.451l38.687-22.655-11.019-17.929-36.968 24.238a26.5 26.5 0 0 0-11.979 3.607Z"/>
            <path id="Vector_27" fill="#6C63FF" d="M724.935 124.841c-1.156-.458-11.301-4.3-20.562.772-10.638 5.826-12.281 19.126-12.857 23.791-1.332 10.776 2.59 13.192 3.418 24.101 1.549 20.41 5.634-2.874-.889 6.443-2.258 3.224-25.317 53.198-38.035 62.986-24.733 19.037-40.439 32.444-40.439 32.444l17.93 19.478s28.334-7.55 53.377-23.811c25.688-16.679 38.532-25.019 48.469-41.335.856-1.405 21.331-36.176 10.335-74.624-2.508-8.77-7.104-24.839-20.747-30.245Z"/>
          </g>
        </g>
      </g>
    </g>
    <g id="table">
      <path id="Vector_28" fill="#2F2E41" d="M133.15 320.278h-20.794v-30.792l20.794 30.792Z"/>
      <path id="Vector_29" fill="#F2F2F2" d="m581.644 273.532-2.586 13.418-6.42 33.328H443.681c1.007-7.47 2.383-18.222 3.854-29.829.145-1.159.297-2.325.442-3.499 3.688-29.177 7.723-62.193 7.723-62.193l16.954 2.057 32.893 3.985 13.404 1.623 35.893 4.355c17.896 2.166 30.205 19.047 26.8 36.755Z"/>
      <path id="Vector_30" fill="#2F2E41" d="M764.144 320.278h-69.945c1.065-1.254 1.666-1.978 1.666-1.978l20.968-3.463 43.203-7.13s1.971 5.094 4.108 12.571Z"/>
      <path id="Vector_31" fill="#E6E6E6" d="M845.64 286.447H21.16c-11.67 0-21.16 9.5-21.16 21.17 0 11.67 9.49 21.161 21.16 21.161h824.48c11.67 0 21.17-9.49 21.17-21.161 0-11.67-9.5-21.17-21.17-21.17Z"/>
    </g>
    <path id="bottom-table" fill="#E6E6E6" d="M592.51 424.998H294.37c-4.98 0-9.03 4.05-9.03 9.03 0 4.98 4.05 9.04 9.03 9.04h298.14c4.98 0 9.04-4.06 9.04-9.04 0-4.98-4.06-9.03-9.04-9.03Z"/>
    <path id="mid-table" fill="#E6E6E6" d="M711.47 378.318H175.42c-4.98 0-9.04 4.049-9.04 9.03 0 4.99 4.06 9.039 9.04 9.039h536.05c4.98 0 9.03-4.049 9.03-9.039 0-4.981-4.05-9.03-9.03-9.03Z"/>
    <path id="monitor-3" fill="#3F3D56" d="m817.522 221.94-1.603 74.802c-.155 7.241-6.069 13.03-13.312 13.03H665.004c-7.071 0-12.909-5.527-13.295-12.588l-4.09-74.803c-.417-7.628 5.656-14.042 13.296-14.042H804.21c7.465 0 13.472 6.137 13.312 13.601Z"/>
    <path id="monitor-2" fill="#3F3D56" d="m518.522 221.94-1.603 74.802c-.155 7.241-6.069 13.03-13.312 13.03H366.004c-7.071 0-12.909-5.527-13.295-12.588l-4.09-74.803c-.417-7.628 5.656-14.042 13.296-14.042H505.21c7.465 0 13.472 6.137 13.312 13.601Z"/>
    <path id="monitor-1" fill="#3F3D56" d="m231.522 221.94-1.603 74.802c-.155 7.241-6.069 13.03-13.312 13.03H79.004c-7.071 0-12.91-5.527-13.295-12.588l-4.09-74.803c-.417-7.628 5.656-14.042 13.296-14.042H218.21c7.465 0 13.472 6.137 13.312 13.601Z"/>
  </g>
  <defs>
    <clipPath id="clip0_2_170">
      <path fill="#fff" d="M0 0h866.81v443.068H0z"/>
    </clipPath>
  </defs>
</svg>
